<?xml version="1.0" encoding="utf-8"?>
<!-- Generator: Adobe Illustrator 19.2.1, SVG Export Plug-In . SVG Version: 6.00 Build 0)  -->
<svg version="1.1" id="Layer_1" xmlns="http://www.w3.org/2000/svg" xmlns:xlink="http://www.w3.org/1999/xlink" x="0px" y="0px"
	 viewBox="0 0 100 100" style="enable-background:new 0 0 100 100;" xml:space="preserve">
<style type="text/css">
	.st0{fill:#131313;}
</style>
<g>
	<polygon class="st0" points="56.2,76.4 51.7,80.8 56.9,94.4 61.4,80.9 	"/>
	<path class="st0" d="M91.7,79.9c-1.6-5.7-10.1-8.9-22-13.2l-5.1,14.2c0,0,0,0.1-0.1,0.1l-4.9,14.6h34.4c0.8,0,1.5-0.7,1.5-1.5
		C95.7,93.8,95.6,87.8,91.7,79.9 M82.6,86.3H73c-0.8,0-1.5-0.7-1.5-1.5c0-0.8,0.7-1.5,1.5-1.5h9.6c0.8,0,1.5,0.7,1.5,1.5
		C84.1,85.6,83.5,86.3,82.6,86.3"/>
	<polygon class="st0" points="38.6,81.1 43,94.4 48.2,80.8 43.8,76.5 	"/>
	<path class="st0" d="M42.8,73.2l4.4-3.8l-10.9-4.9c-1,0.4-1.9,0.7-2.8,1L37.6,78l4.9-4.4C42.6,73.4,42.7,73.3,42.8,73.2"/>
	<path class="st0" d="M62.2,54.9c1.2-1.4,4.4-5.6,4.7-11.9c1.5-1.1,2.2-3.7,2.2-5.7c0-1.2-0.3-2.1-0.7-2.9c-0.4-0.6-0.9-1-1.5-1.3
		v-3c0-0.8-0.7-1.5-1.5-1.5H34.6c-0.8,0-1.5,0.7-1.5,1.5v3c-0.6,0.3-1.1,0.7-1.5,1.3c-0.5,0.8-0.7,1.7-0.7,2.9c0,2,0.8,4.6,2.2,5.7
		c0.3,6.3,3.5,10.5,4.7,11.9v6.9L50,67.3l12.2-5.5V54.9z"/>
	<path class="st0" d="M8.2,79.9c-2,4.1-3.8,13.5-3.9,13.9c-0.1,0.4,0,0.9,0.3,1.3c0.3,0.4,0.7,0.6,1.2,0.6h34.4l-9.7-29.1
		C18.5,70.9,9.8,74.2,8.2,79.9"/>
	<path class="st0" d="M25,27.1h7.2c0,0,0,0,0,0c0,0,0,0,0,0h42.8c0.8,0,1.5-0.7,1.5-1.5c0-0.8-0.7-1.5-1.5-1.5h-6.1L61,5.4
		C60.8,5,60.5,4.7,60,4.5c-0.4-0.1-0.9-0.1-1.3,0.1l-4.7,2.8c-2.3,1.4-6.1,1.4-8.3,0l-4.7-2.8c-0.4-0.2-0.8-0.3-1.3-0.1
		C39.5,4.7,39.1,5,39,5.4l-7.8,18.7H25c-0.8,0-1.5,0.7-1.5,1.5C23.5,26.4,24.2,27.1,25,27.1"/>
	<polygon class="st0" points="52.8,69.4 62.5,77.8 67.1,65 65.1,63.8 	"/>
</g>
</svg>
